<svg xmlns="http://www.w3.org/2000/svg" xmlns:xlink="http://www.w3.org/1999/xlink" width="500" zoomAndPan="magnify" viewBox="0 0 375 374.999991" height="500" preserveAspectRatio="xMidYMid meet" version="1.0"><defs><g/><clipPath id="305848a925"><path d="M 154.742188 110.214844 L 219.992188 110.214844 L 219.992188 207.707031 L 154.742188 207.707031 Z M 154.742188 110.214844 " clip-rule="nonzero"/></clipPath><clipPath id="dd715a49c5"><path d="M 169.230469 121.78125 L 205.980469 121.78125 L 205.980469 159.28125 L 169.230469 159.28125 Z M 169.230469 121.78125 " clip-rule="nonzero"/></clipPath></defs><g clip-path="url(#305848a925)"><path fill="#291b25" d="M 187.355469 168.273438 C 173.46875 168.273438 162.207031 156.960938 162.207031 143.003906 C 162.207031 129.046875 173.46875 117.734375 187.355469 117.734375 C 201.246094 117.734375 212.503906 129.046875 212.503906 143.003906 C 212.503906 156.960938 201.246094 168.273438 187.355469 168.273438 Z M 186.859375 110.21875 C 168.148438 110.496094 153.828125 126.8125 154.789062 145.59375 C 156.210938 173.363281 179.824219 200.515625 185.929688 207.085938 C 186.703125 207.917969 188.015625 207.917969 188.792969 207.078125 C 195.085938 200.296875 219.992188 171.652344 219.992188 143.003906 C 219.992188 124.734375 205.109375 109.945312 186.859375 110.21875 " fill-opacity="1" fill-rule="nonzero"/></g><g clip-path="url(#dd715a49c5)"><path fill="#000000" d="M 205.839844 127.386719 L 196.800781 121.832031 C 196.773438 121.816406 196.746094 121.804688 196.71875 121.796875 C 196.714844 121.796875 196.707031 121.796875 196.703125 121.796875 C 196.675781 121.789062 196.644531 121.789062 196.617188 121.792969 C 196.609375 121.792969 196.601562 121.792969 196.59375 121.792969 C 196.5625 121.800781 196.53125 121.808594 196.5 121.824219 C 196.5 121.828125 196.496094 121.828125 196.496094 121.828125 C 196.496094 121.832031 196.492188 121.832031 196.492188 121.832031 L 187.605469 127.289062 L 178.722656 121.832031 C 178.695312 121.816406 178.667969 121.804688 178.640625 121.796875 C 178.636719 121.796875 178.628906 121.796875 178.625 121.796875 C 178.597656 121.789062 178.566406 121.789062 178.535156 121.792969 C 178.527344 121.792969 178.523438 121.792969 178.515625 121.792969 C 178.484375 121.800781 178.453125 121.808594 178.421875 121.824219 C 178.421875 121.828125 178.417969 121.828125 178.417969 121.832031 C 178.414062 121.832031 178.414062 121.832031 178.414062 121.832031 L 169.375 127.386719 C 169.285156 127.4375 169.230469 127.535156 169.230469 127.640625 L 169.230469 158.96875 C 169.230469 159.078125 169.289062 159.175781 169.382812 159.230469 C 169.429688 159.253906 169.476562 159.265625 169.527344 159.265625 C 169.582031 159.265625 169.636719 159.253906 169.683594 159.222656 L 178.566406 153.765625 L 187.453125 159.222656 C 187.453125 159.226562 187.457031 159.226562 187.457031 159.226562 C 187.472656 159.234375 187.488281 159.242188 187.507812 159.246094 C 187.515625 159.25 187.523438 159.253906 187.53125 159.257812 C 187.554688 159.261719 187.578125 159.265625 187.601562 159.265625 C 187.605469 159.265625 187.605469 159.269531 187.605469 159.269531 C 187.609375 159.269531 187.609375 159.265625 187.609375 159.265625 C 187.636719 159.265625 187.660156 159.261719 187.683594 159.257812 C 187.691406 159.253906 187.699219 159.25 187.703125 159.25 C 187.71875 159.242188 187.738281 159.238281 187.75 159.230469 C 187.753906 159.226562 187.753906 159.226562 187.757812 159.226562 C 187.757812 159.226562 187.757812 159.222656 187.761719 159.222656 L 196.644531 153.765625 L 205.53125 159.222656 C 205.578125 159.253906 205.632812 159.265625 205.683594 159.265625 C 205.734375 159.265625 205.785156 159.253906 205.828125 159.230469 C 205.921875 159.175781 205.980469 159.078125 205.980469 158.96875 L 205.980469 127.640625 C 205.980469 127.535156 205.929688 127.4375 205.839844 127.386719 Z M 202.164062 137.59375 C 202.152344 137.625 202.140625 137.65625 202.128906 137.6875 L 200.386719 136.261719 C 200.570312 135.824219 200.460938 135.300781 200.082031 134.988281 C 199.855469 134.804688 199.574219 134.71875 199.285156 134.746094 C 199 134.777344 198.738281 134.917969 198.554688 135.144531 C 198.179688 135.613281 198.253906 136.300781 198.714844 136.679688 C 198.914062 136.84375 199.15625 136.921875 199.394531 136.921875 C 199.613281 136.921875 199.828125 136.851562 200.011719 136.722656 L 201.847656 138.226562 C 201.648438 138.519531 201.398438 138.785156 201.15625 139.042969 C 200.582031 139.652344 199.988281 140.277344 200.132812 141.210938 C 200.210938 141.730469 200.480469 142.003906 200.734375 142.269531 C 200.957031 142.496094 201.1875 142.730469 201.347656 143.183594 C 201.636719 144.003906 201.550781 145.113281 201.132812 145.949219 C 200.910156 146.390625 200.621094 146.683594 200.328125 146.773438 C 200.085938 146.847656 199.851562 146.78125 199.425781 146.640625 C 198.882812 146.464844 198.144531 146.226562 196.941406 146.265625 L 196.941406 131.210938 C 198.453125 131.605469 200.417969 133.164062 201.488281 134.859375 C 202.144531 135.902344 202.382812 136.871094 202.164062 137.59375 Z M 183.007812 138.765625 C 182.816406 138.300781 182.664062 137.933594 182.738281 137.28125 C 182.855469 136.238281 183.496094 135.109375 184.433594 134.242188 L 184.832031 136.0625 C 184.421875 136.289062 184.183594 136.765625 184.292969 137.25 C 184.355469 137.535156 184.523438 137.777344 184.769531 137.933594 C 184.945312 138.046875 185.144531 138.105469 185.347656 138.105469 C 185.425781 138.105469 185.507812 138.097656 185.585938 138.078125 C 186.167969 137.949219 186.535156 137.363281 186.40625 136.777344 C 186.34375 136.492188 186.171875 136.25 185.929688 136.09375 C 185.769531 135.992188 185.59375 135.941406 185.410156 135.929688 L 184.949219 133.820312 C 185.71875 133.253906 186.539062 132.941406 187.308594 132.925781 L 187.308594 147.683594 L 185.890625 149.550781 L 183.476562 149.550781 C 182.46875 148.292969 181.949219 146.96875 182.015625 145.804688 C 182.054688 145.046875 182.34375 144.488281 182.648438 143.898438 C 183.046875 143.121094 183.5 142.242188 183.464844 140.800781 C 183.4375 139.816406 183.207031 139.257812 183.007812 138.765625 Z M 193.207031 135.320312 C 192.753906 135.449219 192.417969 135.867188 192.417969 136.363281 C 192.417969 136.964844 192.90625 137.453125 193.5 137.453125 C 194.097656 137.453125 194.582031 136.964844 194.582031 136.363281 C 194.582031 135.867188 194.25 135.449219 193.796875 135.320312 L 193.796875 133.613281 C 193.933594 133.394531 194.066406 133.167969 194.191406 132.945312 C 194.664062 132.097656 195.109375 131.300781 195.925781 131.140625 C 196.054688 131.113281 196.199219 131.109375 196.351562 131.117188 L 196.351562 145.652344 L 195.476562 144.234375 C 195.796875 143.882812 195.859375 143.351562 195.601562 142.929688 C 195.449219 142.683594 195.210938 142.507812 194.929688 142.441406 C 194.648438 142.375 194.359375 142.421875 194.109375 142.574219 C 193.601562 142.894531 193.449219 143.570312 193.761719 144.078125 C 193.914062 144.324219 194.152344 144.5 194.433594 144.566406 C 194.515625 144.582031 194.601562 144.59375 194.683594 144.59375 C 194.78125 144.59375 194.882812 144.578125 194.976562 144.550781 L 196.074219 146.335938 C 195.007812 146.480469 193.457031 146.894531 192.382812 148.078125 C 191.855469 148.660156 191.652344 149.222656 191.476562 149.71875 C 191.265625 150.3125 191.082031 150.824219 190.402344 151.355469 C 189.875 151.769531 189.261719 152.0625 188.53125 152.261719 C 188.34375 152.3125 188.132812 152.332031 187.902344 152.324219 L 187.902344 147.886719 L 189.710938 145.515625 C 189.835938 145.566406 189.96875 145.59375 190.105469 145.59375 C 190.152344 145.59375 190.199219 145.589844 190.246094 145.585938 C 190.535156 145.546875 190.789062 145.398438 190.964844 145.167969 C 191.332031 144.695312 191.242188 144.007812 190.769531 143.636719 C 190.539062 143.460938 190.253906 143.382812 189.964844 143.421875 C 189.679688 143.460938 189.425781 143.609375 189.25 143.839844 C 188.949219 144.234375 188.964844 144.769531 189.242188 145.148438 L 187.902344 146.90625 L 187.902344 132.976562 C 188.644531 133.132812 189.167969 133.597656 189.679688 134.046875 C 190.300781 134.601562 190.945312 135.171875 191.910156 135.054688 C 192.46875 134.988281 192.882812 134.71875 193.207031 134.390625 Z M 186.035156 150.144531 C 186.128906 150.144531 186.214844 150.101562 186.269531 150.027344 L 187.308594 148.664062 L 187.308594 152.242188 C 186.238281 151.992188 185.011719 151.214844 183.992188 150.144531 Z M 188 152.921875 C 188.242188 152.921875 188.472656 152.890625 188.683594 152.835938 C 189.492188 152.617188 190.171875 152.289062 190.765625 151.824219 C 191.582031 151.191406 191.8125 150.542969 192.035156 149.921875 C 192.207031 149.433594 192.371094 148.972656 192.820312 148.480469 C 193.859375 147.332031 195.484375 147 196.347656 146.902344 L 196.347656 150.855469 L 187.902344 156.058594 L 187.902344 152.914062 C 187.933594 152.914062 187.96875 152.921875 188 152.921875 Z M 195.808594 130.554688 C 194.8125 130.753906 194.28125 131.578125 193.796875 132.429688 L 193.796875 129.222656 C 193.796875 129.058594 193.664062 128.925781 193.5 128.925781 C 193.339844 128.925781 193.207031 129.058594 193.207031 129.222656 L 193.207031 133.441406 C 192.777344 134.089844 192.363281 134.398438 191.839844 134.464844 C 191.140625 134.546875 190.667969 134.132812 190.070312 133.601562 C 189.5 133.097656 188.859375 132.535156 187.902344 132.375 L 187.902344 130.183594 L 196.351562 124.996094 L 196.351562 130.519531 C 196.160156 130.511719 195.980469 130.523438 195.808594 130.554688 Z M 196.351562 124.296875 L 187.902344 129.488281 L 187.902344 127.804688 L 196.351562 122.617188 Z M 187.308594 132.332031 C 186.492188 132.34375 185.625 132.636719 184.808594 133.1875 L 184.359375 131.144531 C 184.324219 130.984375 184.167969 130.882812 184.007812 130.917969 C 183.847656 130.953125 183.746094 131.113281 183.78125 131.273438 L 184.289062 133.582031 C 183.109375 134.5625 182.292969 135.941406 182.148438 137.214844 C 182.058594 138.015625 182.253906 138.492188 182.457031 138.992188 C 182.648438 139.457031 182.847656 139.941406 182.871094 140.816406 C 182.90625 142.105469 182.507812 142.878906 182.121094 143.625 C 181.800781 144.246094 181.46875 144.886719 181.421875 145.773438 C 181.355469 146.964844 181.816406 148.289062 182.726562 149.550781 L 182.101562 149.550781 C 181.941406 149.550781 181.808594 149.683594 181.808594 149.847656 C 181.808594 150.011719 181.941406 150.144531 182.101562 150.144531 L 183.195312 150.144531 C 184.386719 151.546875 185.960938 152.578125 187.308594 152.851562 L 187.308594 156.070312 L 180.433594 152.039062 L 180.433594 125.800781 L 187.308594 130.195312 Z M 187.902344 156.757812 L 196.351562 151.554688 L 196.351562 153.25 L 187.902344 158.4375 Z M 196.941406 147.753906 L 197.945312 149.390625 C 197.996094 149.46875 198.078125 149.519531 198.167969 149.53125 L 202.082031 149.929688 C 202.089844 149.929688 202.101562 149.929688 202.113281 149.929688 C 202.261719 149.929688 202.390625 149.816406 202.40625 149.664062 C 202.421875 149.5 202.304688 149.355469 202.140625 149.335938 L 198.375 148.953125 L 197.089844 146.859375 C 198.109375 146.84375 198.738281 147.042969 199.242188 147.207031 C 199.683594 147.351562 200.066406 147.472656 200.5 147.34375 C 200.953125 147.207031 201.363281 146.804688 201.660156 146.214844 C 202.148438 145.246094 202.25 143.945312 201.90625 142.984375 C 201.703125 142.40625 201.402344 142.097656 201.160156 141.851562 C 200.933594 141.621094 200.769531 141.453125 200.71875 141.117188 C 200.621094 140.476562 201.066406 140.003906 201.585938 139.453125 C 201.835938 139.191406 202.089844 138.917969 202.308594 138.605469 L 202.5625 138.816406 C 202.621094 138.859375 202.683594 138.882812 202.75 138.882812 C 202.835938 138.882812 202.921875 138.84375 202.980469 138.773438 C 203.085938 138.644531 203.066406 138.457031 202.9375 138.355469 L 202.609375 138.082031 C 202.65625 137.980469 202.695312 137.875 202.730469 137.769531 C 203.007812 136.867188 202.75 135.75 201.988281 134.542969 C 200.796875 132.648438 198.628906 130.972656 196.941406 130.601562 L 196.941406 124.984375 L 203.816406 129.015625 L 203.816406 155.253906 L 196.941406 150.859375 Z M 169.824219 127.804688 L 178.269531 122.617188 L 178.269531 153.25 L 169.824219 158.4375 Z M 178.863281 153.25 L 178.863281 122.617188 L 187.308594 127.804688 L 187.308594 129.492188 L 180.296875 125.007812 C 180.207031 124.949219 180.089844 124.945312 179.996094 125 C 179.902344 125.050781 179.84375 125.152344 179.84375 125.257812 L 179.84375 152.210938 C 179.84375 152.316406 179.898438 152.414062 179.988281 152.46875 L 187.308594 156.761719 L 187.308594 158.4375 Z M 205.390625 158.4375 L 196.941406 153.25 L 196.941406 151.5625 L 203.957031 156.046875 C 204.003906 156.078125 204.058594 156.09375 204.113281 156.09375 C 204.164062 156.09375 204.210938 156.082031 204.257812 156.058594 C 204.351562 156.003906 204.410156 155.90625 204.410156 155.796875 L 204.410156 128.84375 C 204.410156 128.738281 204.355469 128.640625 204.265625 128.585938 L 196.941406 124.292969 L 196.941406 122.617188 L 205.390625 127.804688 Z M 205.390625 158.4375 " fill-opacity="1" fill-rule="nonzero"/></g><path fill="#000000" d="M 177.222656 152.027344 L 174.089844 153.957031 C 173.949219 154.042969 173.90625 154.226562 173.992188 154.367188 C 174.046875 154.457031 174.144531 154.507812 174.242188 154.507812 C 174.296875 154.507812 174.351562 154.492188 174.398438 154.464844 L 177.535156 152.535156 C 177.671875 152.449219 177.71875 152.269531 177.632812 152.128906 C 177.546875 151.988281 177.363281 151.945312 177.222656 152.027344 Z M 177.222656 152.027344 " fill-opacity="1" fill-rule="nonzero"/><path fill="#000000" d="M 177.222656 148.859375 L 174.089844 150.78125 C 173.949219 150.867188 173.90625 151.050781 173.992188 151.191406 C 174.046875 151.285156 174.144531 151.335938 174.242188 151.335938 C 174.296875 151.335938 174.351562 151.320312 174.398438 151.289062 L 177.535156 149.367188 C 177.671875 149.28125 177.71875 149.097656 177.632812 148.957031 C 177.546875 148.816406 177.363281 148.773438 177.222656 148.859375 Z M 177.222656 148.859375 " fill-opacity="1" fill-rule="nonzero"/><path fill="#000000" d="M 177.234375 145.683594 L 174.097656 147.613281 C 173.957031 147.699219 173.914062 147.882812 174 148.019531 C 174.054688 148.113281 174.152344 148.164062 174.253906 148.164062 C 174.304688 148.164062 174.359375 148.148438 174.40625 148.121094 L 177.542969 146.191406 C 177.683594 146.105469 177.726562 145.921875 177.640625 145.785156 C 177.554688 145.644531 177.371094 145.597656 177.234375 145.683594 Z M 177.234375 145.683594 " fill-opacity="1" fill-rule="nonzero"/><path fill="#000000" d="M 171.894531 135.183594 C 171.945312 135.183594 171.996094 135.167969 172.039062 135.144531 C 172.183594 135.0625 172.230469 134.878906 172.148438 134.738281 L 171.183594 133.046875 L 171.855469 133.296875 C 171.9375 133.328125 172.03125 133.320312 172.105469 133.273438 C 172.183594 133.230469 172.234375 133.15625 172.25 133.066406 L 172.375 132.355469 L 173.335938 134.046875 C 173.417969 134.1875 173.601562 134.238281 173.742188 134.15625 C 173.882812 134.074219 173.933594 133.890625 173.851562 133.75 L 172.480469 131.34375 C 172.417969 131.234375 172.292969 131.175781 172.171875 131.199219 C 172.046875 131.21875 171.953125 131.316406 171.929688 131.441406 L 171.726562 132.613281 L 170.621094 132.203125 C 170.503906 132.160156 170.371094 132.195312 170.292969 132.289062 C 170.210938 132.386719 170.199219 132.519531 170.261719 132.628906 L 171.636719 135.03125 C 171.691406 135.128906 171.789062 135.183594 171.894531 135.183594 Z M 171.894531 135.183594 " fill-opacity="1" fill-rule="nonzero"/><path fill="#000000" d="M 173.882812 132.679688 L 173.980469 133.535156 C 174 133.683594 174.128906 133.796875 174.277344 133.796875 C 174.289062 133.796875 174.300781 133.796875 174.3125 133.792969 C 174.472656 133.773438 174.589844 133.625 174.570312 133.464844 L 174.492188 132.800781 L 175.613281 132.152344 L 176.140625 132.550781 C 176.269531 132.648438 176.457031 132.621094 176.554688 132.492188 C 176.652344 132.359375 176.628906 132.171875 176.496094 132.074219 L 175.820312 131.5625 C 175.816406 131.558594 175.8125 131.554688 175.808594 131.554688 L 174.101562 130.261719 C 174.007812 130.191406 173.878906 130.183594 173.777344 130.242188 C 173.671875 130.300781 173.617188 130.417969 173.628906 130.535156 Z M 175.097656 131.761719 L 174.417969 132.160156 L 174.296875 131.15625 Z M 175.097656 131.761719 " fill-opacity="1" fill-rule="nonzero"/><path fill="#000000" d="M 176.15625 131.03125 L 176.742188 132.0625 C 176.796875 132.160156 176.898438 132.214844 177 132.214844 C 177.050781 132.214844 177.101562 132.203125 177.148438 132.175781 C 177.289062 132.09375 177.339844 131.910156 177.257812 131.769531 L 176.816406 130.992188 L 177.238281 130.746094 C 177.574219 130.550781 177.78125 130.191406 177.78125 129.800781 C 177.78125 129.609375 177.734375 129.421875 177.640625 129.257812 C 177.496094 129.003906 177.261719 128.820312 176.980469 128.746094 C 176.699219 128.671875 176.410156 128.710938 176.160156 128.855469 L 175.480469 129.253906 C 175.339844 129.335938 175.289062 129.515625 175.371094 129.65625 Z M 176.460938 129.371094 C 176.570312 129.304688 176.699219 129.289062 176.824219 129.320312 C 176.953125 129.355469 177.058594 129.4375 177.125 129.554688 C 177.167969 129.628906 177.1875 129.714844 177.1875 129.800781 C 177.1875 129.976562 177.09375 130.144531 176.941406 130.230469 L 176.523438 130.476562 L 176.03125 129.617188 Z M 176.460938 129.371094 " fill-opacity="1" fill-rule="nonzero"/><path fill="#000000" d="M 171.886719 147.167969 C 171.289062 147.167969 170.800781 147.660156 170.800781 148.261719 C 170.800781 148.863281 171.289062 149.351562 171.886719 149.351562 C 172.484375 149.351562 172.96875 148.863281 172.96875 148.261719 C 172.96875 147.660156 172.484375 147.167969 171.886719 147.167969 Z M 171.886719 147.167969 " fill-opacity="1" fill-rule="nonzero"/><path fill="#000000" d="M 171.886719 150.34375 C 171.289062 150.34375 170.800781 150.832031 170.800781 151.433594 C 170.800781 152.035156 171.289062 152.523438 171.886719 152.523438 C 172.484375 152.523438 172.96875 152.035156 172.96875 151.433594 C 172.96875 150.832031 172.484375 150.34375 171.886719 150.34375 Z M 171.886719 150.34375 " fill-opacity="1" fill-rule="nonzero"/><path fill="#000000" d="M 171.886719 153.515625 C 171.289062 153.515625 170.800781 154.007812 170.800781 154.605469 C 170.800781 155.207031 171.289062 155.699219 171.886719 155.699219 C 172.484375 155.699219 172.96875 155.207031 172.96875 154.605469 C 172.96875 154.007812 172.484375 153.515625 171.886719 153.515625 Z M 171.886719 153.515625 " fill-opacity="1" fill-rule="nonzero"/><path fill="#000000" d="M 176.273438 137.066406 C 176.132812 136.976562 176.007812 136.847656 175.898438 136.675781 C 175.332031 135.808594 174.292969 135.394531 173.371094 135.671875 C 172.339844 135.984375 171.667969 137.121094 171.84375 138.261719 C 171.882812 138.542969 171.824219 138.847656 171.675781 139.121094 C 171.320312 139.769531 170.953125 140.789062 171.203125 141.96875 C 171.308594 142.464844 171.511719 142.929688 171.796875 143.34375 C 171.894531 143.492188 171.964844 143.683594 172.015625 143.941406 C 172.15625 144.691406 172.734375 145.28125 173.417969 145.375 C 173.480469 145.382812 173.542969 145.386719 173.609375 145.386719 C 174.21875 145.386719 174.824219 144.996094 175.128906 144.386719 C 175.261719 144.121094 175.496094 143.777344 175.867188 143.644531 C 176.476562 143.433594 176.972656 143.003906 177.261719 142.4375 C 177.511719 141.941406 177.582031 141.367188 177.460938 140.78125 C 177.40625 140.535156 177.441406 140.25 177.558594 139.984375 C 177.617188 139.855469 177.65625 139.71875 177.679688 139.574219 C 177.828125 138.695312 177.277344 137.710938 176.273438 137.066406 Z M 177.09375 139.476562 C 177.085938 139.535156 177.066406 139.628906 177.015625 139.746094 C 176.851562 140.125 176.800781 140.535156 176.878906 140.902344 C 176.976562 141.363281 176.925781 141.785156 176.734375 142.167969 C 176.515625 142.59375 176.136719 142.921875 175.667969 143.085938 C 175.226562 143.242188 174.855469 143.601562 174.597656 144.121094 C 174.378906 144.5625 173.914062 144.839844 173.5 144.785156 C 173.070312 144.726562 172.691406 144.324219 172.597656 143.832031 C 172.53125 143.488281 172.433594 143.230469 172.285156 143.007812 C 172.042969 142.65625 171.871094 142.261719 171.78125 141.84375 C 171.570312 140.84375 171.890625 139.964844 172.195312 139.40625 C 172.40625 139.019531 172.488281 138.582031 172.429688 138.175781 C 172.300781 137.320312 172.789062 136.46875 173.542969 136.242188 C 173.675781 136.199219 173.8125 136.183594 173.949219 136.183594 C 174.5 136.183594 175.070312 136.488281 175.402344 137 C 175.554688 137.242188 175.742188 137.433594 175.953125 137.570312 C 176.757812 138.082031 177.207031 138.832031 177.09375 139.476562 Z M 177.09375 139.476562 " fill-opacity="1" fill-rule="nonzero"/><path fill="#000000" d="M 191.140625 139.238281 C 190.546875 139.238281 190.0625 139.726562 190.0625 140.328125 C 190.0625 140.929688 190.546875 141.417969 191.140625 141.417969 C 191.742188 141.417969 192.226562 140.929688 192.226562 140.328125 C 192.226562 139.726562 191.742188 139.238281 191.140625 139.238281 Z M 191.140625 139.238281 " fill-opacity="1" fill-rule="nonzero"/><g fill="#2e266d" fill-opacity="1"><g transform="translate(39.67981, 240.312025)"><g><path d="M 16.90625 -5 C 17.125 -5 17.3125 -4.914062 17.46875 -4.75 L 19.03125 -3.0625 C 18.164062 -2 17.101562 -1.179688 15.84375 -0.609375 C 14.59375 -0.046875 13.09375 0.234375 11.34375 0.234375 C 9.769531 0.234375 8.351562 -0.03125 7.09375 -0.5625 C 5.84375 -1.101562 4.769531 -1.851562 3.875 -2.8125 C 2.988281 -3.769531 2.304688 -4.910156 1.828125 -6.234375 C 1.359375 -7.566406 1.125 -9.019531 1.125 -10.59375 C 1.125 -12.1875 1.378906 -13.644531 1.890625 -14.96875 C 2.398438 -16.289062 3.113281 -17.425781 4.03125 -18.375 C 4.957031 -19.332031 6.0625 -20.078125 7.34375 -20.609375 C 8.625 -21.148438 10.039062 -21.421875 11.59375 -21.421875 C 13.132812 -21.421875 14.5 -21.164062 15.6875 -20.65625 C 16.882812 -20.144531 17.90625 -19.476562 18.75 -18.65625 L 17.4375 -16.828125 C 17.351562 -16.710938 17.25 -16.609375 17.125 -16.515625 C 17.007812 -16.429688 16.84375 -16.390625 16.625 -16.390625 C 16.476562 -16.390625 16.328125 -16.429688 16.171875 -16.515625 C 16.015625 -16.597656 15.84375 -16.695312 15.65625 -16.8125 C 15.46875 -16.9375 15.253906 -17.070312 15.015625 -17.21875 C 14.773438 -17.375 14.492188 -17.507812 14.171875 -17.625 C 13.847656 -17.75 13.472656 -17.851562 13.046875 -17.9375 C 12.617188 -18.019531 12.128906 -18.0625 11.578125 -18.0625 C 10.628906 -18.0625 9.757812 -17.890625 8.96875 -17.546875 C 8.1875 -17.210938 7.507812 -16.722656 6.9375 -16.078125 C 6.375 -15.441406 5.9375 -14.660156 5.625 -13.734375 C 5.3125 -12.816406 5.15625 -11.769531 5.15625 -10.59375 C 5.15625 -9.394531 5.320312 -8.332031 5.65625 -7.40625 C 6 -6.476562 6.457031 -5.695312 7.03125 -5.0625 C 7.601562 -4.425781 8.28125 -3.941406 9.0625 -3.609375 C 9.84375 -3.273438 10.6875 -3.109375 11.59375 -3.109375 C 12.125 -3.109375 12.609375 -3.132812 13.046875 -3.1875 C 13.484375 -3.25 13.882812 -3.34375 14.25 -3.46875 C 14.613281 -3.59375 14.957031 -3.753906 15.28125 -3.953125 C 15.613281 -4.160156 15.941406 -4.410156 16.265625 -4.703125 C 16.359375 -4.785156 16.457031 -4.851562 16.5625 -4.90625 C 16.675781 -4.96875 16.789062 -5 16.90625 -5 Z M 16.90625 -5 "/></g></g></g><g fill="#2e266d" fill-opacity="1"><g transform="translate(59.64587, 240.312025)"><g><path d="M 22.5625 -10.59375 C 22.5625 -9.039062 22.300781 -7.601562 21.78125 -6.28125 C 21.269531 -4.957031 20.546875 -3.8125 19.609375 -2.84375 C 18.671875 -1.875 17.539062 -1.117188 16.21875 -0.578125 C 14.90625 -0.0351562 13.445312 0.234375 11.84375 0.234375 C 10.238281 0.234375 8.773438 -0.0351562 7.453125 -0.578125 C 6.140625 -1.117188 5.007812 -1.875 4.0625 -2.84375 C 3.125 -3.8125 2.394531 -4.957031 1.875 -6.28125 C 1.351562 -7.601562 1.09375 -9.039062 1.09375 -10.59375 C 1.09375 -12.144531 1.351562 -13.582031 1.875 -14.90625 C 2.394531 -16.226562 3.125 -17.375 4.0625 -18.34375 C 5.007812 -19.3125 6.140625 -20.066406 7.453125 -20.609375 C 8.773438 -21.148438 10.238281 -21.421875 11.84375 -21.421875 C 12.914062 -21.421875 13.925781 -21.296875 14.875 -21.046875 C 15.820312 -20.796875 16.6875 -20.441406 17.46875 -19.984375 C 18.257812 -19.535156 18.96875 -18.984375 19.59375 -18.328125 C 20.226562 -17.679688 20.765625 -16.957031 21.203125 -16.15625 C 21.648438 -15.351562 21.988281 -14.484375 22.21875 -13.546875 C 22.445312 -12.609375 22.5625 -11.625 22.5625 -10.59375 Z M 18.53125 -10.59375 C 18.53125 -11.75 18.375 -12.789062 18.0625 -13.71875 C 17.75 -14.644531 17.300781 -15.425781 16.71875 -16.0625 C 16.144531 -16.707031 15.445312 -17.203125 14.625 -17.546875 C 13.800781 -17.890625 12.875 -18.0625 11.84375 -18.0625 C 10.800781 -18.0625 9.867188 -17.890625 9.046875 -17.546875 C 8.222656 -17.203125 7.519531 -16.707031 6.9375 -16.0625 C 6.351562 -15.425781 5.90625 -14.644531 5.59375 -13.71875 C 5.28125 -12.789062 5.125 -11.75 5.125 -10.59375 C 5.125 -9.425781 5.28125 -8.378906 5.59375 -7.453125 C 5.90625 -6.535156 6.351562 -5.753906 6.9375 -5.109375 C 7.519531 -4.472656 8.222656 -3.984375 9.046875 -3.640625 C 9.867188 -3.304688 10.800781 -3.140625 11.84375 -3.140625 C 12.875 -3.140625 13.800781 -3.304688 14.625 -3.640625 C 15.445312 -3.984375 16.144531 -4.472656 16.71875 -5.109375 C 17.300781 -5.753906 17.75 -6.535156 18.0625 -7.453125 C 18.375 -8.378906 18.53125 -9.425781 18.53125 -10.59375 Z M 18.53125 -10.59375 "/></g></g></g><g fill="#2e266d" fill-opacity="1"><g transform="translate(83.90392, 240.312025)"><g><path d="M 20.21875 -21.1875 L 20.21875 0 L 18.1875 0 C 17.875 0 17.613281 -0.0507812 17.40625 -0.15625 C 17.195312 -0.257812 16.992188 -0.429688 16.796875 -0.671875 L 5.75 -14.796875 C 5.800781 -14.148438 5.828125 -13.554688 5.828125 -13.015625 L 5.828125 0 L 2.359375 0 L 2.359375 -21.1875 L 4.421875 -21.1875 C 4.585938 -21.1875 4.734375 -21.175781 4.859375 -21.15625 C 4.984375 -21.144531 5.085938 -21.113281 5.171875 -21.0625 C 5.265625 -21.019531 5.351562 -20.957031 5.4375 -20.875 C 5.53125 -20.789062 5.632812 -20.679688 5.75 -20.546875 L 16.84375 -6.375 C 16.8125 -6.71875 16.785156 -7.050781 16.765625 -7.375 C 16.753906 -7.707031 16.75 -8.019531 16.75 -8.3125 L 16.75 -21.1875 Z M 20.21875 -21.1875 "/></g></g></g><g fill="#2e266d" fill-opacity="1"><g transform="translate(107.063339, 240.312025)"><g><path d="M 13.640625 -17.328125 C 13.523438 -17.117188 13.398438 -16.96875 13.265625 -16.875 C 13.128906 -16.789062 12.96875 -16.75 12.78125 -16.75 C 12.570312 -16.75 12.347656 -16.820312 12.109375 -16.96875 C 11.867188 -17.125 11.582031 -17.289062 11.25 -17.46875 C 10.914062 -17.65625 10.523438 -17.820312 10.078125 -17.96875 C 9.640625 -18.125 9.117188 -18.203125 8.515625 -18.203125 C 7.960938 -18.203125 7.476562 -18.132812 7.0625 -18 C 6.65625 -17.875 6.3125 -17.691406 6.03125 -17.453125 C 5.757812 -17.222656 5.554688 -16.941406 5.421875 -16.609375 C 5.285156 -16.285156 5.21875 -15.929688 5.21875 -15.546875 C 5.21875 -15.046875 5.351562 -14.628906 5.625 -14.296875 C 5.90625 -13.960938 6.273438 -13.675781 6.734375 -13.4375 C 7.191406 -13.207031 7.710938 -13 8.296875 -12.8125 C 8.890625 -12.632812 9.492188 -12.4375 10.109375 -12.21875 C 10.722656 -12.007812 11.320312 -11.765625 11.90625 -11.484375 C 12.488281 -11.210938 13.007812 -10.863281 13.46875 -10.4375 C 13.9375 -10.007812 14.304688 -9.488281 14.578125 -8.875 C 14.859375 -8.257812 15 -7.515625 15 -6.640625 C 15 -5.679688 14.832031 -4.785156 14.5 -3.953125 C 14.175781 -3.117188 13.695312 -2.390625 13.0625 -1.765625 C 12.4375 -1.140625 11.671875 -0.648438 10.765625 -0.296875 C 9.859375 0.0546875 8.816406 0.234375 7.640625 0.234375 C 6.972656 0.234375 6.3125 0.164062 5.65625 0.03125 C 5 -0.09375 4.367188 -0.273438 3.765625 -0.515625 C 3.171875 -0.765625 2.609375 -1.0625 2.078125 -1.40625 C 1.554688 -1.75 1.085938 -2.128906 0.671875 -2.546875 L 1.828125 -4.4375 C 1.929688 -4.570312 2.0625 -4.6875 2.21875 -4.78125 C 2.375 -4.875 2.535156 -4.921875 2.703125 -4.921875 C 2.953125 -4.921875 3.21875 -4.820312 3.5 -4.625 C 3.78125 -4.425781 4.113281 -4.203125 4.5 -3.953125 C 4.894531 -3.710938 5.351562 -3.488281 5.875 -3.28125 C 6.40625 -3.082031 7.035156 -2.984375 7.765625 -2.984375 C 8.890625 -2.984375 9.757812 -3.25 10.375 -3.78125 C 10.988281 -4.3125 11.296875 -5.078125 11.296875 -6.078125 C 11.296875 -6.640625 11.15625 -7.09375 10.875 -7.4375 C 10.59375 -7.789062 10.222656 -8.085938 9.765625 -8.328125 C 9.304688 -8.566406 8.785156 -8.769531 8.203125 -8.9375 C 7.617188 -9.101562 7.023438 -9.28125 6.421875 -9.46875 C 5.816406 -9.664062 5.21875 -9.898438 4.625 -10.171875 C 4.039062 -10.453125 3.519531 -10.8125 3.0625 -11.25 C 2.601562 -11.6875 2.234375 -12.234375 1.953125 -12.890625 C 1.671875 -13.554688 1.53125 -14.375 1.53125 -15.34375 C 1.53125 -16.113281 1.6875 -16.863281 2 -17.59375 C 2.3125 -18.320312 2.757812 -18.96875 3.34375 -19.53125 C 3.925781 -20.101562 4.644531 -20.5625 5.5 -20.90625 C 6.363281 -21.25 7.351562 -21.421875 8.46875 -21.421875 C 9.71875 -21.421875 10.867188 -21.222656 11.921875 -20.828125 C 12.972656 -20.441406 13.875 -19.894531 14.625 -19.1875 Z M 13.640625 -17.328125 "/></g></g></g><g fill="#2e266d" fill-opacity="1"><g transform="translate(123.718852, 240.312025)"><g><path d="M 10.890625 -3.171875 C 11.648438 -3.171875 12.328125 -3.296875 12.921875 -3.546875 C 13.523438 -3.804688 14.03125 -4.164062 14.4375 -4.625 C 14.851562 -5.082031 15.171875 -5.640625 15.390625 -6.296875 C 15.609375 -6.953125 15.71875 -7.6875 15.71875 -8.5 L 15.71875 -21.1875 L 19.65625 -21.1875 L 19.65625 -8.5 C 19.65625 -7.238281 19.453125 -6.070312 19.046875 -5 C 18.640625 -3.9375 18.054688 -3.015625 17.296875 -2.234375 C 16.546875 -1.453125 15.628906 -0.84375 14.546875 -0.40625 C 13.460938 0.0195312 12.242188 0.234375 10.890625 0.234375 C 9.515625 0.234375 8.285156 0.0195312 7.203125 -0.40625 C 6.117188 -0.84375 5.195312 -1.453125 4.4375 -2.234375 C 3.6875 -3.015625 3.109375 -3.9375 2.703125 -5 C 2.296875 -6.070312 2.09375 -7.238281 2.09375 -8.5 L 2.09375 -21.1875 L 6.03125 -21.1875 L 6.03125 -8.515625 C 6.03125 -7.703125 6.140625 -6.96875 6.359375 -6.3125 C 6.578125 -5.65625 6.894531 -5.09375 7.3125 -4.625 C 7.726562 -4.164062 8.234375 -3.804688 8.828125 -3.546875 C 9.429688 -3.296875 10.117188 -3.171875 10.890625 -3.171875 Z M 10.890625 -3.171875 "/></g></g></g><g fill="#2e266d" fill-opacity="1"><g transform="translate(146.057958, 240.312025)"><g><path d="M 14.765625 -3.25 L 14.765625 0 L 2.359375 0 L 2.359375 -21.1875 L 6.296875 -21.1875 L 6.296875 -3.25 Z M 14.765625 -3.25 "/></g></g></g><g fill="#2e266d" fill-opacity="1"><g transform="translate(161.863862, 240.312025)"><g><path d="M 17.15625 -17.9375 L 10.765625 -17.9375 L 10.765625 0 L 6.828125 0 L 6.828125 -17.9375 L 0.4375 -17.9375 L 0.4375 -21.1875 L 17.15625 -21.1875 Z M 17.15625 -17.9375 "/></g></g></g><g fill="#2e266d" fill-opacity="1"><g transform="translate(180.028163, 240.312025)"><g><path d="M 22.5625 -10.59375 C 22.5625 -9.039062 22.300781 -7.601562 21.78125 -6.28125 C 21.269531 -4.957031 20.546875 -3.8125 19.609375 -2.84375 C 18.671875 -1.875 17.539062 -1.117188 16.21875 -0.578125 C 14.90625 -0.0351562 13.445312 0.234375 11.84375 0.234375 C 10.238281 0.234375 8.773438 -0.0351562 7.453125 -0.578125 C 6.140625 -1.117188 5.007812 -1.875 4.0625 -2.84375 C 3.125 -3.8125 2.394531 -4.957031 1.875 -6.28125 C 1.351562 -7.601562 1.09375 -9.039062 1.09375 -10.59375 C 1.09375 -12.144531 1.351562 -13.582031 1.875 -14.90625 C 2.394531 -16.226562 3.125 -17.375 4.0625 -18.34375 C 5.007812 -19.3125 6.140625 -20.066406 7.453125 -20.609375 C 8.773438 -21.148438 10.238281 -21.421875 11.84375 -21.421875 C 12.914062 -21.421875 13.925781 -21.296875 14.875 -21.046875 C 15.820312 -20.796875 16.6875 -20.441406 17.46875 -19.984375 C 18.257812 -19.535156 18.96875 -18.984375 19.59375 -18.328125 C 20.226562 -17.679688 20.765625 -16.957031 21.203125 -16.15625 C 21.648438 -15.351562 21.988281 -14.484375 22.21875 -13.546875 C 22.445312 -12.609375 22.5625 -11.625 22.5625 -10.59375 Z M 18.53125 -10.59375 C 18.53125 -11.75 18.375 -12.789062 18.0625 -13.71875 C 17.75 -14.644531 17.300781 -15.425781 16.71875 -16.0625 C 16.144531 -16.707031 15.445312 -17.203125 14.625 -17.546875 C 13.800781 -17.890625 12.875 -18.0625 11.84375 -18.0625 C 10.800781 -18.0625 9.867188 -17.890625 9.046875 -17.546875 C 8.222656 -17.203125 7.519531 -16.707031 6.9375 -16.0625 C 6.351562 -15.425781 5.90625 -14.644531 5.59375 -13.71875 C 5.28125 -12.789062 5.125 -11.75 5.125 -10.59375 C 5.125 -9.425781 5.28125 -8.378906 5.59375 -7.453125 C 5.90625 -6.535156 6.351562 -5.753906 6.9375 -5.109375 C 7.519531 -4.472656 8.222656 -3.984375 9.046875 -3.640625 C 9.867188 -3.304688 10.800781 -3.140625 11.84375 -3.140625 C 12.875 -3.140625 13.800781 -3.304688 14.625 -3.640625 C 15.445312 -3.984375 16.144531 -4.472656 16.71875 -5.109375 C 17.300781 -5.753906 17.75 -6.535156 18.0625 -7.453125 C 18.375 -8.378906 18.53125 -9.425781 18.53125 -10.59375 Z M 18.53125 -10.59375 "/></g></g></g><g fill="#2e266d" fill-opacity="1"><g transform="translate(204.286214, 240.312025)"><g><path d="M 8.765625 -11.109375 C 9.503906 -11.109375 10.148438 -11.195312 10.703125 -11.375 C 11.253906 -11.5625 11.707031 -11.816406 12.0625 -12.140625 C 12.414062 -12.472656 12.679688 -12.863281 12.859375 -13.3125 C 13.035156 -13.757812 13.125 -14.253906 13.125 -14.796875 C 13.125 -15.867188 12.769531 -16.691406 12.0625 -17.265625 C 11.351562 -17.847656 10.269531 -18.140625 8.8125 -18.140625 L 6.296875 -18.140625 L 6.296875 -11.109375 Z M 18.890625 0 L 15.34375 0 C 14.664062 0 14.175781 -0.265625 13.875 -0.796875 L 9.421875 -7.578125 C 9.253906 -7.828125 9.066406 -8.003906 8.859375 -8.109375 C 8.660156 -8.222656 8.367188 -8.28125 7.984375 -8.28125 L 6.296875 -8.28125 L 6.296875 0 L 2.359375 0 L 2.359375 -21.1875 L 8.8125 -21.1875 C 10.25 -21.1875 11.484375 -21.035156 12.515625 -20.734375 C 13.546875 -20.429688 14.390625 -20.007812 15.046875 -19.46875 C 15.710938 -18.9375 16.203125 -18.296875 16.515625 -17.546875 C 16.828125 -16.804688 16.984375 -15.988281 16.984375 -15.09375 C 16.984375 -14.375 16.875 -13.695312 16.65625 -13.0625 C 16.445312 -12.425781 16.144531 -11.847656 15.75 -11.328125 C 15.351562 -10.816406 14.863281 -10.363281 14.28125 -9.96875 C 13.707031 -9.582031 13.050781 -9.273438 12.3125 -9.046875 C 12.5625 -8.898438 12.789062 -8.726562 13 -8.53125 C 13.21875 -8.332031 13.414062 -8.097656 13.59375 -7.828125 Z M 18.890625 0 "/></g></g></g><g fill="#2e266d" fill-opacity="1"><g transform="translate(223.710281, 240.312025)"><g><path d="M 6.3125 0 L 2.359375 0 L 2.359375 -21.1875 L 6.3125 -21.1875 Z M 6.3125 0 "/></g></g></g><g fill="#2e266d" fill-opacity="1"><g transform="translate(232.982982, 240.312025)"><g><path d="M 13.546875 -8 L 10.96875 -15.046875 C 10.84375 -15.359375 10.710938 -15.726562 10.578125 -16.15625 C 10.441406 -16.582031 10.304688 -17.046875 10.171875 -17.546875 C 10.035156 -17.046875 9.898438 -16.578125 9.765625 -16.140625 C 9.628906 -15.710938 9.5 -15.335938 9.375 -15.015625 L 6.8125 -8 Z M 20.515625 0 L 17.46875 0 C 17.125 0 16.84375 -0.0820312 16.625 -0.25 C 16.40625 -0.425781 16.242188 -0.640625 16.140625 -0.890625 L 14.5625 -5.21875 L 5.78125 -5.21875 L 4.203125 -0.890625 C 4.128906 -0.671875 3.976562 -0.46875 3.75 -0.28125 C 3.519531 -0.09375 3.242188 0 2.921875 0 L -0.15625 0 L 8.171875 -21.1875 L 12.1875 -21.1875 Z M 20.515625 0 "/></g></g></g><g fill="#2e266d" fill-opacity="1"><g transform="translate(253.915849, 240.312025)"><g/></g></g><g fill="#2e266d" fill-opacity="1"><g transform="translate(261.621156, 240.312025)"><g><path d="M 14.765625 -3.25 L 14.765625 0 L 2.359375 0 L 2.359375 -21.1875 L 6.296875 -21.1875 L 6.296875 -3.25 Z M 14.765625 -3.25 "/></g></g></g><g fill="#2e266d" fill-opacity="1"><g transform="translate(277.427048, 240.312025)"><g><path d="M 6.3125 0 L 2.359375 0 L 2.359375 -21.1875 L 6.3125 -21.1875 Z M 6.3125 0 "/></g></g></g><g fill="#2e266d" fill-opacity="1"><g transform="translate(286.699737, 240.312025)"><g><path d="M 25.328125 -21.1875 L 25.328125 0 L 21.859375 0 L 21.859375 -13.6875 C 21.859375 -14.226562 21.882812 -14.816406 21.9375 -15.453125 L 15.546875 -3.421875 C 15.242188 -2.847656 14.78125 -2.5625 14.15625 -2.5625 L 13.59375 -2.5625 C 12.96875 -2.5625 12.503906 -2.847656 12.203125 -3.421875 L 5.734375 -15.5 C 5.753906 -15.175781 5.773438 -14.859375 5.796875 -14.546875 C 5.816406 -14.234375 5.828125 -13.945312 5.828125 -13.6875 L 5.828125 0 L 2.359375 0 L 2.359375 -21.1875 L 5.328125 -21.1875 C 5.503906 -21.1875 5.65625 -21.179688 5.78125 -21.171875 C 5.914062 -21.160156 6.03125 -21.132812 6.125 -21.09375 C 6.226562 -21.050781 6.320312 -20.984375 6.40625 -20.890625 C 6.488281 -20.804688 6.570312 -20.691406 6.65625 -20.546875 L 13 -8.796875 C 13.164062 -8.484375 13.316406 -8.160156 13.453125 -7.828125 C 13.597656 -7.492188 13.738281 -7.148438 13.875 -6.796875 C 14.007812 -7.160156 14.148438 -7.507812 14.296875 -7.84375 C 14.441406 -8.175781 14.597656 -8.5 14.765625 -8.8125 L 21.015625 -20.546875 C 21.097656 -20.691406 21.179688 -20.804688 21.265625 -20.890625 C 21.359375 -20.984375 21.453125 -21.050781 21.546875 -21.09375 C 21.648438 -21.132812 21.765625 -21.160156 21.890625 -21.171875 C 22.023438 -21.179688 22.179688 -21.1875 22.359375 -21.1875 Z M 25.328125 -21.1875 "/></g></g></g><g fill="#2e266d" fill-opacity="1"><g transform="translate(314.971449, 240.312025)"><g><path d="M 13.546875 -8 L 10.96875 -15.046875 C 10.84375 -15.359375 10.710938 -15.726562 10.578125 -16.15625 C 10.441406 -16.582031 10.304688 -17.046875 10.171875 -17.546875 C 10.035156 -17.046875 9.898438 -16.578125 9.765625 -16.140625 C 9.628906 -15.710938 9.5 -15.335938 9.375 -15.015625 L 6.8125 -8 Z M 20.515625 0 L 17.46875 0 C 17.125 0 16.84375 -0.0820312 16.625 -0.25 C 16.40625 -0.425781 16.242188 -0.640625 16.140625 -0.890625 L 14.5625 -5.21875 L 5.78125 -5.21875 L 4.203125 -0.890625 C 4.128906 -0.671875 3.976562 -0.46875 3.75 -0.28125 C 3.519531 -0.09375 3.242188 0 2.921875 0 L -0.15625 0 L 8.171875 -21.1875 L 12.1875 -21.1875 Z M 20.515625 0 "/></g></g></g><g fill="#291b25" fill-opacity="1"><g transform="translate(125.79453, 262.137727)"><g><path d="M 4.328125 -6.578125 C 3.703125 -6.578125 3.21875 -6.34375 2.875 -5.875 C 2.53125 -5.40625 2.359375 -4.75 2.359375 -3.90625 C 2.359375 -2.15625 3.015625 -1.28125 4.328125 -1.28125 C 4.878906 -1.28125 5.546875 -1.414062 6.328125 -1.6875 L 6.328125 -0.296875 C 5.679688 -0.0234375 4.960938 0.109375 4.171875 0.109375 C 3.023438 0.109375 2.148438 -0.234375 1.546875 -0.921875 C 0.941406 -1.617188 0.640625 -2.617188 0.640625 -3.921875 C 0.640625 -4.734375 0.785156 -5.445312 1.078125 -6.0625 C 1.378906 -6.675781 1.804688 -7.144531 2.359375 -7.46875 C 2.921875 -7.800781 3.578125 -7.96875 4.328125 -7.96875 C 5.085938 -7.96875 5.851562 -7.78125 6.625 -7.40625 L 6.078125 -6.0625 C 5.785156 -6.195312 5.488281 -6.316406 5.1875 -6.421875 C 4.894531 -6.523438 4.609375 -6.578125 4.328125 -6.578125 Z M 4.328125 -6.578125 "/></g></g></g><g fill="#291b25" fill-opacity="1"><g transform="translate(133.34883, 262.137727)"><g><path d="M 5.515625 0 L 0.984375 0 L 0.984375 -7.859375 L 5.515625 -7.859375 L 5.515625 -6.484375 L 2.65625 -6.484375 L 2.65625 -4.765625 L 5.3125 -4.765625 L 5.3125 -3.40625 L 2.65625 -3.40625 L 2.65625 -1.375 L 5.515625 -1.375 Z M 5.515625 0 "/></g></g></g><g fill="#291b25" fill-opacity="1"><g transform="translate(140.055101, 262.137727)"><g><path d="M 2.65625 -4.15625 L 3.203125 -4.15625 C 3.710938 -4.15625 4.09375 -4.253906 4.34375 -4.453125 C 4.601562 -4.660156 4.734375 -4.957031 4.734375 -5.34375 C 4.734375 -5.738281 4.625 -6.023438 4.40625 -6.203125 C 4.195312 -6.390625 3.863281 -6.484375 3.40625 -6.484375 L 2.65625 -6.484375 Z M 6.40625 -5.40625 C 6.40625 -4.5625 6.140625 -3.914062 5.609375 -3.46875 C 5.085938 -3.019531 4.34375 -2.796875 3.375 -2.796875 L 2.65625 -2.796875 L 2.65625 0 L 0.984375 0 L 0.984375 -7.859375 L 3.5 -7.859375 C 4.445312 -7.859375 5.164062 -7.648438 5.65625 -7.234375 C 6.15625 -6.828125 6.40625 -6.21875 6.40625 -5.40625 Z M 6.40625 -5.40625 "/></g></g></g><g fill="#291b25" fill-opacity="1"><g transform="translate(147.507423, 262.137727)"><g/></g></g><g fill="#291b25" fill-opacity="1"><g transform="translate(150.912816, 262.137727)"><g><path d="M 5.515625 0 L 0.984375 0 L 0.984375 -7.859375 L 5.515625 -7.859375 L 5.515625 -6.484375 L 2.65625 -6.484375 L 2.65625 -4.765625 L 5.3125 -4.765625 L 5.3125 -3.40625 L 2.65625 -3.40625 L 2.65625 -1.375 L 5.515625 -1.375 Z M 5.515625 0 "/></g></g></g><g fill="#291b25" fill-opacity="1"><g transform="translate(157.619088, 262.137727)"><g/></g></g><g fill="#291b25" fill-opacity="1"><g transform="translate(161.024481, 262.137727)"><g><path d="M 2.65625 -4.359375 L 3.1875 -4.359375 C 3.71875 -4.359375 4.109375 -4.445312 4.359375 -4.625 C 4.609375 -4.800781 4.734375 -5.078125 4.734375 -5.453125 C 4.734375 -5.828125 4.601562 -6.09375 4.34375 -6.25 C 4.09375 -6.40625 3.695312 -6.484375 3.15625 -6.484375 L 2.65625 -6.484375 Z M 2.65625 -3.015625 L 2.65625 0 L 0.984375 0 L 0.984375 -7.859375 L 3.28125 -7.859375 C 4.34375 -7.859375 5.128906 -7.660156 5.640625 -7.265625 C 6.148438 -6.878906 6.40625 -6.289062 6.40625 -5.5 C 6.40625 -5.039062 6.28125 -4.628906 6.03125 -4.265625 C 5.78125 -3.910156 5.421875 -3.628906 4.953125 -3.421875 C 6.128906 -1.660156 6.898438 -0.519531 7.265625 0 L 5.421875 0 L 3.546875 -3.015625 Z M 2.65625 -3.015625 "/></g></g></g><g fill="#291b25" fill-opacity="1"><g transform="translate(168.831041, 262.137727)"><g><path d="M 5.796875 0 L 5.21875 -1.875 L 2.359375 -1.875 L 1.796875 0 L 0 0 L 2.765625 -7.890625 L 4.8125 -7.890625 L 7.59375 0 Z M 4.828125 -3.265625 C 4.304688 -4.960938 4.007812 -5.921875 3.9375 -6.140625 C 3.875 -6.359375 3.828125 -6.535156 3.796875 -6.671875 C 3.679688 -6.210938 3.34375 -5.078125 2.78125 -3.265625 Z M 4.828125 -3.265625 "/></g></g></g><g fill="#291b25" fill-opacity="1"><g transform="translate(176.965009, 262.137727)"><g><path d="M 5.625 -2.1875 C 5.625 -1.476562 5.367188 -0.914062 4.859375 -0.5 C 4.347656 -0.09375 3.640625 0.109375 2.734375 0.109375 C 1.890625 0.109375 1.144531 -0.046875 0.5 -0.359375 L 0.5 -1.90625 C 1.03125 -1.675781 1.476562 -1.507812 1.84375 -1.40625 C 2.21875 -1.3125 2.554688 -1.265625 2.859375 -1.265625 C 3.222656 -1.265625 3.5 -1.332031 3.6875 -1.46875 C 3.882812 -1.613281 3.984375 -1.820312 3.984375 -2.09375 C 3.984375 -2.25 3.941406 -2.382812 3.859375 -2.5 C 3.773438 -2.625 3.648438 -2.742188 3.484375 -2.859375 C 3.316406 -2.972656 2.976562 -3.148438 2.46875 -3.390625 C 1.988281 -3.617188 1.628906 -3.832031 1.390625 -4.03125 C 1.148438 -4.238281 0.957031 -4.476562 0.8125 -4.75 C 0.664062 -5.03125 0.59375 -5.359375 0.59375 -5.734375 C 0.59375 -6.421875 0.828125 -6.960938 1.296875 -7.359375 C 1.773438 -7.765625 2.425781 -7.96875 3.25 -7.96875 C 3.664062 -7.96875 4.054688 -7.914062 4.421875 -7.8125 C 4.796875 -7.71875 5.1875 -7.582031 5.59375 -7.40625 L 5.046875 -6.125 C 4.628906 -6.289062 4.28125 -6.40625 4 -6.46875 C 3.726562 -6.539062 3.460938 -6.578125 3.203125 -6.578125 C 2.890625 -6.578125 2.644531 -6.503906 2.46875 -6.359375 C 2.300781 -6.210938 2.21875 -6.019531 2.21875 -5.78125 C 2.21875 -5.632812 2.25 -5.503906 2.3125 -5.390625 C 2.382812 -5.285156 2.492188 -5.179688 2.640625 -5.078125 C 2.796875 -4.984375 3.148438 -4.800781 3.703125 -4.53125 C 4.441406 -4.175781 4.945312 -3.820312 5.21875 -3.46875 C 5.488281 -3.125 5.625 -2.695312 5.625 -2.1875 Z M 5.625 -2.1875 "/></g></g></g><g fill="#291b25" fill-opacity="1"><g transform="translate(183.569303, 262.137727)"><g><path d="M 4.015625 0 L 2.359375 0 L 2.359375 -6.46875 L 0.21875 -6.46875 L 0.21875 -7.859375 L 6.15625 -7.859375 L 6.15625 -6.46875 L 4.015625 -6.46875 Z M 4.015625 0 "/></g></g></g><g fill="#291b25" fill-opacity="1"><g transform="translate(190.484898, 262.137727)"><g><path d="M 2.65625 -4.359375 L 3.1875 -4.359375 C 3.71875 -4.359375 4.109375 -4.445312 4.359375 -4.625 C 4.609375 -4.800781 4.734375 -5.078125 4.734375 -5.453125 C 4.734375 -5.828125 4.601562 -6.09375 4.34375 -6.25 C 4.09375 -6.40625 3.695312 -6.484375 3.15625 -6.484375 L 2.65625 -6.484375 Z M 2.65625 -3.015625 L 2.65625 0 L 0.984375 0 L 0.984375 -7.859375 L 3.28125 -7.859375 C 4.34375 -7.859375 5.128906 -7.660156 5.640625 -7.265625 C 6.148438 -6.878906 6.40625 -6.289062 6.40625 -5.5 C 6.40625 -5.039062 6.28125 -4.628906 6.03125 -4.265625 C 5.78125 -3.910156 5.421875 -3.628906 4.953125 -3.421875 C 6.128906 -1.660156 6.898438 -0.519531 7.265625 0 L 5.421875 0 L 3.546875 -3.015625 Z M 2.65625 -3.015625 "/></g></g></g><g fill="#291b25" fill-opacity="1"><g transform="translate(198.291462, 262.137727)"><g><path d="M 5.796875 0 L 5.21875 -1.875 L 2.359375 -1.875 L 1.796875 0 L 0 0 L 2.765625 -7.890625 L 4.8125 -7.890625 L 7.59375 0 Z M 4.828125 -3.265625 C 4.304688 -4.960938 4.007812 -5.921875 3.9375 -6.140625 C 3.875 -6.359375 3.828125 -6.535156 3.796875 -6.671875 C 3.679688 -6.210938 3.34375 -5.078125 2.78125 -3.265625 Z M 4.828125 -3.265625 "/></g></g></g><g fill="#291b25" fill-opacity="1"><g transform="translate(206.42543, 262.137727)"><g><path d="M 4.3125 0 L 2.421875 -6.15625 L 2.375 -6.15625 C 2.4375 -4.90625 2.46875 -4.070312 2.46875 -3.65625 L 2.46875 0 L 0.984375 0 L 0.984375 -7.859375 L 3.25 -7.859375 L 5.109375 -1.84375 L 5.140625 -1.84375 L 7.109375 -7.859375 L 9.390625 -7.859375 L 9.390625 0 L 7.828125 0 L 7.828125 -3.71875 C 7.828125 -3.894531 7.828125 -4.097656 7.828125 -4.328125 C 7.835938 -4.554688 7.863281 -5.164062 7.90625 -6.15625 L 7.859375 -6.15625 L 5.84375 0 Z M 4.3125 0 "/></g></g></g><g fill="#291b25" fill-opacity="1"><g transform="translate(217.339648, 262.137727)"><g><path d="M 5.515625 0 L 0.984375 0 L 0.984375 -7.859375 L 5.515625 -7.859375 L 5.515625 -6.484375 L 2.65625 -6.484375 L 2.65625 -4.765625 L 5.3125 -4.765625 L 5.3125 -3.40625 L 2.65625 -3.40625 L 2.65625 -1.375 L 5.515625 -1.375 Z M 5.515625 0 "/></g></g></g><g fill="#291b25" fill-opacity="1"><g transform="translate(224.04592, 262.137727)"><g><path d="M 7.953125 0 L 5.84375 0 L 2.421875 -5.9375 L 2.375 -5.9375 C 2.4375 -4.882812 2.46875 -4.140625 2.46875 -3.703125 L 2.46875 0 L 0.984375 0 L 0.984375 -7.859375 L 3.09375 -7.859375 L 6.5 -1.96875 L 6.53125 -1.96875 C 6.476562 -2.988281 6.453125 -3.710938 6.453125 -4.140625 L 6.453125 -7.859375 L 7.953125 -7.859375 Z M 7.953125 0 "/></g></g></g><g fill="#291b25" fill-opacity="1"><g transform="translate(233.532442, 262.137727)"><g><path d="M 4.015625 0 L 2.359375 0 L 2.359375 -6.46875 L 0.21875 -6.46875 L 0.21875 -7.859375 L 6.15625 -7.859375 L 6.15625 -6.46875 L 4.015625 -6.46875 Z M 4.015625 0 "/></g></g></g><g fill="#291b25" fill-opacity="1"><g transform="translate(240.448037, 262.137727)"><g><path d="M 8.109375 -3.9375 C 8.109375 -2.632812 7.785156 -1.632812 7.140625 -0.9375 C 6.503906 -0.238281 5.582031 0.109375 4.375 0.109375 C 3.175781 0.109375 2.253906 -0.238281 1.609375 -0.9375 C 0.960938 -1.632812 0.640625 -2.640625 0.640625 -3.953125 C 0.640625 -5.253906 0.960938 -6.25 1.609375 -6.9375 C 2.253906 -7.625 3.179688 -7.96875 4.390625 -7.96875 C 5.597656 -7.96875 6.519531 -7.617188 7.15625 -6.921875 C 7.789062 -6.234375 8.109375 -5.238281 8.109375 -3.9375 Z M 2.390625 -3.9375 C 2.390625 -3.0625 2.554688 -2.398438 2.890625 -1.953125 C 3.222656 -1.515625 3.71875 -1.296875 4.375 -1.296875 C 5.707031 -1.296875 6.375 -2.175781 6.375 -3.9375 C 6.375 -5.707031 5.710938 -6.59375 4.390625 -6.59375 C 3.722656 -6.59375 3.222656 -6.367188 2.890625 -5.921875 C 2.554688 -5.472656 2.390625 -4.8125 2.390625 -3.9375 Z M 2.390625 -3.9375 "/></g></g></g></svg>